<?xml version="1.0" encoding="utf-8"?>
<!-- Generator: Adobe Illustrator 19.1.0, SVG Export Plug-In . SVG Version: 6.00 Build 0)  -->
<!DOCTYPE svg PUBLIC "-//W3C//DTD SVG 1.1//EN" "http://www.w3.org/Graphics/SVG/1.1/DTD/svg11.dtd">
<svg version="1.1" id="Layer_1" xmlns="http://www.w3.org/2000/svg" xmlns:xlink="http://www.w3.org/1999/xlink" x="0px" y="0px"
	 viewBox="0 0 24 24" style="enable-background:new 0 0 24 24;" xml:space="preserve">
<style type="text/css">
	.st0{fill:#4A494A;}
</style>
<g>
	<path class="st0" d="M21.3,1.6c-0.9,0-1.6,0.7-1.6,1.6c0,0.9-0.7,1.6-1.6,1.6s-1.6-0.7-1.6-1.6c0-1.8-1.5-3.3-3.3-3.3
		c-1.8,0-3.3,1.5-3.3,3.3v2.2H8.2C7.9,5.5,7.6,5.7,7.6,6v1.2c-3.3,1.3-5.5,4.5-5.5,8.1c0,4.8,3.9,8.7,8.7,8.7s8.7-3.9,8.7-8.7
		c0-3.6-2.2-6.8-5.5-8.1V6c0-0.3-0.2-0.5-0.5-0.5h-2.7V3.3c0-1.2,1-2.2,2.2-2.2c1.2,0,2.2,1,2.2,2.2C15.3,4.8,16.5,6,18,6
		c1.5,0,2.7-1.2,2.7-2.7c0-0.3,0.2-0.5,0.5-0.5c0.3,0,0.5-0.2,0.5-0.5C21.8,1.9,21.6,1.6,21.3,1.6z M7.8,10.8
		c-2.5,1.7-3.1,5.1-1.4,7.6c0.2,0.2,0.1,0.6-0.1,0.8c-0.1,0.1-0.2,0.1-0.3,0.1c-0.2,0-0.3-0.1-0.4-0.2c-1-1.4-1.4-3.2-1.1-4.9
		c0.3-1.7,1.3-3.2,2.7-4.2C7.4,9.7,7.8,9.8,7.9,10C8.1,10.3,8,10.6,7.8,10.8z"/>
</g>
</svg>
