<?xml version="1.0" encoding="utf-8"?>
<!-- Generator: Adobe Illustrator 19.1.0, SVG Export Plug-In . SVG Version: 6.00 Build 0)  -->
<!DOCTYPE svg PUBLIC "-//W3C//DTD SVG 1.1//EN" "http://www.w3.org/Graphics/SVG/1.1/DTD/svg11.dtd">
<svg version="1.1" id="Layer_1" xmlns="http://www.w3.org/2000/svg" xmlns:xlink="http://www.w3.org/1999/xlink" x="0px" y="0px"
	 viewBox="-48.3 51 22.6 24" style="enable-background:new -48.3 51 22.6 24;" xml:space="preserve">
<style type="text/css">
	.st0{fill:#DE2D26;}
	.st1{fill:#494949;}
</style>
<g>
	<path class="st0" d="M-42.9,56c1.4,0,2.5-1.1,2.5-2.5c0-1.4-1.1-2.5-2.5-2.5c-1.4,0-2.5,1.1-2.5,2.5S-44.2,56-42.9,56z"/>
	<path class="st0" d="M-37.4,63.7c0,0,0-0.1,0-0.1l-1.1-6c-0.1-0.6-0.6-1-1.1-1H-46c-0.6,0-1,0.4-1.1,1l-1.1,6c0,0,0,0.1,0,0.1
		c0,0.1,0,0.1,0,0.2c0,0.6,0.5,1.2,1.2,1.2c0.6,0,1-0.4,1.1-1l0.7-4.5l0,14.2c0,0.6,0.5,1.2,1.2,1.2c0.6,0,1.2-0.5,1.2-1.2v-7.1h0.3
		v7.1c0,0.6,0.5,1.2,1.2,1.2s1.2-0.5,1.2-1.2l0-14.2l0.7,4.5c0.1,0.5,0.6,0.9,1.1,0.9c0.6,0,1.2-0.5,1.2-1.2
		C-37.4,63.8-37.4,63.8-37.4,63.7z"/>
</g>
<g>
	<path class="st1" d="M-31.1,55.9c1.4,0,2.5-1.1,2.5-2.5c0-1.4-1.1-2.5-2.5-2.5c-1.4,0-2.5,1.1-2.5,2.5S-32.5,55.9-31.1,55.9z"/>
	<path class="st1" d="M-25.7,63.6c0,0,0-0.1,0-0.1l-1.1-6c-0.1-0.6-0.6-1-1.1-1h-6.3c-0.6,0-1,0.4-1.1,1l-1.1,6c0,0,0,0.1,0,0.1
		c0,0.1,0,0.1,0,0.2c0,0.6,0.5,1.2,1.2,1.2c0.6,0,1-0.4,1.1-1l0.7-4.5l0,14.2c0,0.6,0.5,1.2,1.2,1.2c0.6,0,1.2-0.5,1.2-1.2v-7.1h0.3
		v7.1c0,0.6,0.5,1.2,1.2,1.2c0.6,0,1.2-0.5,1.2-1.2l0-14.2L-28,64c0.1,0.5,0.6,0.9,1.1,0.9c0.6,0,1.2-0.5,1.2-1.2
		C-25.7,63.8-25.7,63.7-25.7,63.6z"/>
</g>
</svg>
