<?xml version="1.0" encoding="utf-8"?>
<!-- Generator: Adobe Illustrator 19.1.0, SVG Export Plug-In . SVG Version: 6.00 Build 0)  -->
<!DOCTYPE svg PUBLIC "-//W3C//DTD SVG 1.1//EN" "http://www.w3.org/Graphics/SVG/1.1/DTD/svg11.dtd">
<svg version="1.1" id="Layer_1" xmlns="http://www.w3.org/2000/svg" xmlns:xlink="http://www.w3.org/1999/xlink" x="0px" y="0px"
	 viewBox="0 0 963 162" style="enable-background:new 0 0 963 162;" xml:space="preserve">
<style type="text/css">
	.st0{fill:none;}
	.st1{fill:#4A494A;}
	.st2{font-family:'HelveticaNeue-Bold';}
	.st3{font-size:36px;}
	.st4{fill:#DE2F27;}
	.st5{font-size:72px;}
	.st6{fill:#DFDFDF;stroke:#4A494A;stroke-width:3;stroke-miterlimit:10;}
	.st7{fill:#4B4A4B;}
	.st8{fill:#4B4B4B;}
	.st9{fill:#DFDFDF;stroke:#DE2F27;stroke-width:3;stroke-miterlimit:10;}
	.st10{fill:#DF3427;}
</style>
<rect x="800" y="100" class="st0" width="163" height="55"/>
<text transform="matrix(1 0 0 1 800 125.7036)" class="st1 st2 st3">Incidents</text>
<rect x="452" y="100" class="st0" width="163" height="55"/>
<text transform="matrix(1 0 0 1 452 125.7036)" class="st1 st2 st3">Wounded</text>
<rect x="165" y="100" class="st0" width="115" height="55"/>
<text transform="matrix(1 0 0 1 165 125.7036)" class="st4 st2 st3">Killed</text>
<rect x="800" y="33" class="st0" width="124" height="61"/>
<text id="counts_total" transform="matrix(1 0 0 1 800 84.4072)" class="st1 st2 st5">650</text>
<rect x="443" y="33" class="st0" width="124" height="61"/>
<text id="counts_wia" transform="matrix(1 0 0 1 443 84.4072)" class="st1 st2 st5">152</text>
<rect x="164" y="33" class="st0" width="110" height="61"/>
<text id="counts_kia" transform="matrix(1 0 0 1 164 84.4072)" class="st4 st2 st5">65</text>
<g>
	<ellipse class="st6" cx="716.9" cy="80.5" rx="75" ry="74.9"/>
	<path class="st7" d="M761.8,33.8c-4.1,0-7.3,3.2-7.3,7.3s-3.2,7.3-7.3,7.3c-4.1,0-7.3-3.2-7.3-7.3c0-8.2-6.8-15.1-15.1-15.1
		s-15.1,6.8-15.1,15.1v10H702c-1.4,0.5-2.7,1.4-2.7,2.7v5.5c-15.1,5.9-25.1,20.5-25.1,37c0,21.9,17.8,39.7,39.7,39.7
		s39.7-17.8,39.7-39.7c0-16.4-10-31-25.1-37v-5.5c0-1.4-0.9-2.3-2.3-2.3h-12.3v-10c0-5.5,4.6-10,10-10s10,4.6,10,10
		c0.5,6.8,5.9,12.3,12.8,12.3c6.8,0,12.3-5.5,12.3-12.3c0-1.4,0.9-2.3,2.3-2.3c1.4,0,2.3-0.9,2.3-2.3
		C764,35.1,763.1,33.8,761.8,33.8z M700.1,75.8c-11.4,7.8-14.1,23.3-6.4,34.7c0.9,0.9,0.5,2.7-0.5,3.7c-0.5,0.5-0.9,0.5-1.4,0.5
		c-0.9,0-1.4-0.5-1.8-0.9c-4.6-6.4-6.4-14.6-5-22.4c1.4-7.8,5.9-14.6,12.3-19.2c0.9-1.4,2.7-0.9,3.2,0
		C701.5,73.5,701.1,74.8,700.1,75.8z"/>
</g>
<g>
	<ellipse class="st6" cx="368.9" cy="79.5" rx="75" ry="74.9"/>
	<path class="st8" d="M367.6,45c7,0,12.5-5.5,12.5-12.5S374.6,20,367.6,20s-12.5,6-12.5,13S360.6,45,367.6,45z"/>
	<path class="st8" d="M394.6,83.5V83l-5.5-30c-0.5-3-3-5-5.5-5h-32c-3,0-5,2-5.5,5l-5.5,30v0.5c0,0.5,0,0.5,0,1c0,3,2.5,6,6,6
		c3,0,5-2,5.5-5l3.5-22.5v71c0,3,2.5,6,6,6s6-2.5,6-6V98.5h1.5V134c0,3,2.5,6,6,6s6-2.5,6-6V63l3.5,22.5c0.5,2.5,3,4.5,5.5,4.5
		c3,0,6-2.5,6-6C394.6,84.5,394.6,84,394.6,83.5z"/>
</g>
<g>
	<ellipse class="st9" cx="80.9" cy="80.5" rx="75" ry="74.9"/>
	<path class="st10" d="M79.6,47c7,0,12.5-5.5,12.5-12.5S86.6,22,79.6,22s-12,6-12,12.5S73.1,47,79.6,47z"/>
	<path class="st10" d="M106.6,85.5V85l-5.5-30c-0.5-3-3-5-5.5-5H64.1c-3,0-5,2-5.5,5l-5.5,30v0.5c0,0.5,0,0.5,0,1
		c-0.5,3,2,5.5,5.5,5.5c3,0,5-2,5.5-5l3.5-22v71c0,3,2.5,6,6,6c3,0,6-2.5,6-6v-35.5h1.5V136c0,3,2.5,6,6,6s6-2.5,6-6V65l3.5,22.5
		c0.5,2.5,3,4.5,5.5,4.5c3,0,6-2.5,6-6C107.1,86,107.1,86,106.6,85.5z"/>
</g>
</svg>
