<?xml version="1.0" encoding="utf-8"?>
<!-- Generator: Adobe Illustrator 19.1.0, SVG Export Plug-In . SVG Version: 6.00 Build 0)  -->
<!DOCTYPE svg PUBLIC "-//W3C//DTD SVG 1.1//EN" "http://www.w3.org/Graphics/SVG/1.1/DTD/svg11.dtd">
<svg version="1.1" id="Layer_1" xmlns="http://www.w3.org/2000/svg" xmlns:xlink="http://www.w3.org/1999/xlink" x="0px" y="0px"
	 viewBox="0 0 22.6 24" style="enable-background:new 0 0 22.6 24;" xml:space="preserve">
<style type="text/css">
	.st0{fill:#ff8100;}
</style>
<g>
	<path class="st0" d="M11.2,4.9c1.4,0,2.5-1.1,2.5-2.5c0-1.4-1.1-2.5-2.5-2.5S8.7,1.1,8.7,2.5S9.8,4.9,11.2,4.9z"/>
	<path class="st0" d="M16.6,12.6c0,0,0-0.1,0-0.1l-1.1-6c-0.1-0.6-0.6-1-1.1-1H8c-0.6,0-1,0.4-1.1,1l-1.1,6c0,0,0,0.1,0,0.1
		c0,0.1,0,0.1,0,0.2c0,0.6,0.5,1.2,1.2,1.2c0.6,0,1-0.4,1.1-1l0.7-4.5l0,14.2c0,0.6,0.5,1.2,1.2,1.2s1.2-0.5,1.2-1.2v-7.1h0.3v7.1
		c0,0.6,0.5,1.2,1.2,1.2s1.2-0.5,1.2-1.2l0-14.2l0.7,4.5c0.1,0.5,0.6,0.9,1.1,0.9c0.6,0,1.2-0.5,1.2-1.2
		C16.6,12.8,16.6,12.7,16.6,12.6z"/>
</g>
</svg>
